<svg xmlns="http://www.w3.org/2000/svg"  viewBox="0 0 512 512" width="128px" height="128px"><polygon fill="#00efd1" points="450.59 162.54 498.79 210.75 463.58 246.03 415.3 197.76 450.59 162.54"/><polygon fill="#fedb41" points="327.73 285.19 364.29 248.7 415.3 197.76 463.58 246.03 364.19 345.59 327.53 382.3 284.79 425.12 284.78 425.12 236.21 376.55 295.86 317 327.73 285.19"/><polygon fill="#00efd1" points="364.29 248.7 327.73 285.19 327.73 97.05 286.35 97.05 276.52 74.66 276.55 74.65 364.22 74.65 364.22 248.63 364.29 248.7"/><polygon fill="#00efd1" points="364.22 345.62 364.22 503.6 13.21 503.6 13.21 74.65 100.35 74.65 90.51 97.05 49.7 97.05 49.7 470.56 327.73 470.56 327.73 382.5 327.53 382.3 364.19 345.59 364.22 345.62"/><polygon fill="#00acea" points="295.86 317 236.21 376.55 217.75 443.58 284.78 425.12 284.79 425.12 327.53 382.3 327.73 382.5 327.73 470.56 49.7 470.56 49.7 97.05 90.51 97.05 82.84 114.51 294.01 114.51 286.35 97.05 327.73 97.05 327.73 285.19 295.86 317"/><path fill="#fedb41" d="M100.35,74.65l4.61-10.5a35.664,35.664,0,0,1,32.66-21.33h8.08C150.29,23.31,166.92,8.4,188.14,8.4a43.157,43.157,0,0,1,42.44,34.42h8.66A35.674,35.674,0,0,1,271.9,64.15l4.62,10.51,9.83,22.39,7.66,17.46H82.84l7.67-17.46Z"/><polygon fill="#00efd1" points="236.21 376.55 284.78 425.12 217.75 443.58 236.21 376.55"/><path fill="#083863" d="M13.21,510H364.22c3.314,0,5.78-3.086,5.78-6.4V348.035L502.927,214.988a6,6,0,0,0,.051-8.48L454.806,158.3a6.118,6.118,0,0,0-8.578,0l-76.228,76V74.65A5.525,5.525,0,0,0,364.22,69H280.432l-3.038-7A41.756,41.756,0,0,0,239.24,37h-4.026A49.752,49.752,0,0,0,188.14,2.58C166.7,2.58,148.005,16,141.171,37H137.62A41.756,41.756,0,0,0,99.466,62L96.43,69H13.21C9.9,69,7,71.336,7,74.65V503.6A6.535,6.535,0,0,0,13.21,510ZM77.816,118.035A6.243,6.243,0,0,0,82.84,121H294.01a6.345,6.345,0,0,0,5.494-8.8l-3.971-9.2H322V282.7L293.38,311H184a6,6,0,0,0,0,12h97.36l-49.389,49.3a6,6,0,0,0-1.546,2.653L224.905,395H184a6,6,0,0,0,0,12h37.6l-9.636,34.987a6,6,0,0,0,7.378,7.378l67.03-18.46-1.434-5.209.216-.211,4.017,3.874L322,396.609V465H56V103H81.32l-3.973,9.194A6.294,6.294,0,0,0,77.816,118.035ZM239.259,388.076l33.99,34-46.91,12.919Zm45.522,28.56L244.7,376.554l54.722-54.628a6.028,6.028,0,0,0,1.5-1.5L415.3,206.245l39.793,39.785Zm165.8-245.615,39.724,39.733-26.737,26.783-39.779-39.77ZM358,246.272,334,270.72V97.05A6.279,6.279,0,0,0,327.73,91H290.266L285.7,81H358ZM110.454,66.9A29.817,29.817,0,0,1,137.62,49h8.08a6.081,6.081,0,0,0,5.84-4.716c4.193-17.821,18.9-29.839,36.6-29.839A37.433,37.433,0,0,1,224.7,44.14,6.06,6.06,0,0,0,230.58,49h8.66a29.818,29.818,0,0,1,27.167,17.9L284.826,109H92.029ZM19,81H91.159L86.591,91H49.7A5.794,5.794,0,0,0,44,97.05V470.56c0,3.314,2.386,6.44,5.7,6.44H327.73a6.625,6.625,0,0,0,6.27-6.44V384.588l24-24.532V498H19Z"/><path fill="#083863" d="M71.714,217.581a6,6,0,0,0-.113,8.484l21.05,21.621a6,6,0,0,0,8.418.177l40.22-37.97a6,6,0,0,0-8.238-8.726L97.127,235.081,80.2,217.694A6,6,0,0,0,71.714,217.581Z"/><path fill="#083863" d="M184,239H302a6,6,0,0,0,0-12H184a6,6,0,0,0,0,12Z"/><path fill="#083863" d="M133.052,285.107,97.127,319.013,80.2,301.633a6,6,0,0,0-8.6,8.373l21.05,21.611a6,6,0,0,0,8.416.176l40.22-37.96a6,6,0,1,0-8.236-8.726Z"/><path fill="#083863" d="M133.051,369.037,97.127,402.951,80.2,385.564a6,6,0,0,0-8.6,8.372l21.05,21.62a6,6,0,0,0,8.418.177l40.22-37.97a6,6,0,1,0-8.238-8.726Z"/></svg>