<svg xmlns="http://www.w3.org/2000/svg"  viewBox="0 0 64 64" width="128px" height="128px"><path fill="#ade8f4" d="M7,45H17a0,0,0,0,1,0,0v4a0,0,0,0,1,0,0H7a2,2,0,0,1-2-2v0a2,2,0,0,1,2-2Z" transform="rotate(-180 11 47)"/><path fill="#48cae4" d="M17,47a2.015,2.015,0,0,1-2,2H5V45H7.18A2.968,2.968,0,0,0,10,47Z"/><path fill="#00b4d8" d="M45,3h0A11,11,0,0,1,56,14v0a4,4,0,0,1-4,4H38a4,4,0,0,1-4-4v0A11,11,0,0,1,45,3Z"/><path fill="#0096c7" d="M53.966,11.966a3.487,3.487,0,0,0-2.188-1.014C46.831,10.56,43,7.821,43,4.5a4.359,4.359,0,0,1,.216-1.343A10.993,10.993,0,0,0,34,14a4,4,0,0,0,4,4H52a4,4,0,0,0,4-4c0-.355-.02-.7-.053-1.051A3.515,3.515,0,0,1,53.966,11.966Z"/><path fill="#48cae4" d="M60.994,38.02,61,38h-.007a6,6,0,0,0-5.007-5.836l-3.644-.607A4,4,0,0,1,49,27.611V24H41v3.611a4,4,0,0,1-3.342,3.946l-3.644.607A6,6,0,0,0,29,38.083V57H53l5.627-13.307.772.071Z"/><path fill="#00b4d8" d="M58.139,41a2.751,2.751,0,0,1-1.944-.8l-.39-.39a2.749,2.749,0,0,0-4.5.923A5.207,5.207,0,0,1,46.476,44h-3.63a5.2,5.2,0,0,1-5.191-4.834l-.537-7.519-3.1.517A6,6,0,0,0,29,38.083V57H53l5.627-13.307.772.071L60.167,41Z"/><polygon fill="#00b4d8" points="40 42 45 37 37.658 31.557 34.014 32.164 40 42"/><polygon fill="#00b4d8" points="48 43 45 37 52.342 31.557 55.986 32.164 48 43"/><path fill="#edb88e" d="M52.342,31.557A4,4,0,0,1,49,27.611V24H41v3.611a4,4,0,0,1-3.342,3.946L45,37Z"/><polygon fill="#ade8f4" points="41 40 45 37 37.658 31.557 34.014 32.164 41 40"/><polygon fill="#ade8f4" points="49 40 45 37 52.342 31.557 55.986 32.164 49 40"/><path fill="#da9367" d="M49,34a7.978,7.978,0,0,1-6.249-3.013c.083,0,.165.013.249.013a7.977,7.977,0,0,0,6.055-2.781A3.938,3.938,0,0,1,49,27.611V24H41v3.611a4,4,0,0,1-3.342,3.946L45,37l4.05-3C49.033,34,49.017,34,49,34Z"/><path fill="#f9dbaf" d="M45,28h0a8,8,0,0,1-8-8V14h0a5.123,5.123,0,0,0,4.97-3.881L42,10l.315.252A17.106,17.106,0,0,0,53,14h0v6A8,8,0,0,1,45,28Z"/><path fill="#edb88e" d="M42.315,10.252,42,10l-.03.119A5.123,5.123,0,0,1,37,14v6a8,8,0,0,0,14.957,3.94A7.917,7.917,0,0,1,48,25a8,8,0,0,1-8-8V15.015a5.1,5.1,0,0,0,1.97-2.9L42,12l.315.252A17.106,17.106,0,0,0,53,16V14A17.106,17.106,0,0,1,42.315,10.252Z"/><path fill="#48cae4" d="M5,46H15a1,1,0,0,1,1,1v0a1,1,0,0,1-1,1H5a0,0,0,0,1,0,0V46A0,0,0,0,1,5,46Z"/><path fill="#f9dbaf" d="M26,57l-3-3,5.64-4.7a1,1,0,0,0,.36-.768V43h6l-.572,5.152a8,8,0,0,1-3.711,5.9Z"/><path fill="#edb88e" d="M35,43l-.57,5.15a8,8,0,0,1-3.71,5.9L26,57l-3-3,3.6-3h1.1A4.3,4.3,0,0,0,32,46.7,2.7,2.7,0,0,0,29.3,44H29V43Z"/><rect width="58" height="4" x="3" y="57" fill="#b8bebf"/><path fill="#93999a" d="M8,59a2,2,0,0,1-2-2H3v4H61V59Z"/><path fill="#edb88e" d="M53,15h2a2,2,0,0,1,2,2v0a3,3,0,0,1-3,3H53a0,0,0,0,1,0,0V15A0,0,0,0,1,53,15Z"/><path fill="#edb88e" d="M33,15h1a3,3,0,0,1,3,3v0a2,2,0,0,1-2,2H33a0,0,0,0,1,0,0V15A0,0,0,0,1,33,15Z" transform="rotate(180 35 17.5)"/><circle cx="47" cy="19" r="2.5" fill="#edb88e"/><circle cx="41" cy="19" r="2.5" fill="#edb88e"/><path fill="#fcf2ad" d="M21,20a6,6,0,1,0-10,4.463V26h8V24.463A5.976,5.976,0,0,0,21,20Z"/><rect width="12" height="4" x="9" y="26" fill="#e9f1f2" rx="2"/><path fill="#d0d8da" d="M11,30h8a0,0,0,0,1,0,0v1a4,4,0,0,1-4,4h0a4,4,0,0,1-4-4V30A0,0,0,0,1,11,30Z"/><path fill="#f9dbaf" d="M13,17a6.972,6.972,0,0,1,.6-2.829A5.988,5.988,0,0,0,11,24.463V26h8V24.463a6.191,6.191,0,0,0,.483-.489A7,7,0,0,1,13,17Z"/><path fill="#d0d8da" d="M11,26a2,2,0,0,0,0,4h8a2,2,0,0,0,2-2H13A2,2,0,0,1,11,26Z"/><path fill="#b8bebf" d="M17,34a3,3,0,0,1-3-3h5V30H11v1a3.981,3.981,0,0,0,6.62,3Z"/><path fill="#f9dbaf" d="M52.964,43.179,52,48l-7.809-.781a10.3,10.3,0,0,0-4.28.477A4.453,4.453,0,0,0,37,53a15.97,15.97,0,0,1,7.984.062l6.235,1.663a5,5,0,0,0,6.1-3.493L59.4,43.764Z"/><path fill="#edb88e" d="M55.215,47.748A3.788,3.788,0,0,1,58.858,45h.2l.343-1.236-6.435-.585L52,48a3.582,3.582,0,0,1-4.1,2.38l-1.714-.343a17.784,17.784,0,0,0-9.114.575A4.428,4.428,0,0,0,37,53a15.97,15.97,0,0,1,7.984.062l6.235,1.663A4.993,4.993,0,0,0,57,52.073,3.777,3.777,0,0,1,55.215,47.748Z"/><path fill="#d0d8da" d="M47,57H34a4.773,4.773,0,0,1,5.846-4.651L47,54Z"/><path fill="#d0d8da" d="M21,57H34a4.773,4.773,0,0,0-5.846-4.651L21,54Z"/><path fill="#e9f1f2" d="M47,54v2l-7.15-1.65a5.034,5.034,0,0,0-1.08-.12A4.775,4.775,0,0,0,34.44,57H34a4.769,4.769,0,0,1,4.77-4.77,5.034,5.034,0,0,1,1.08.12Z"/><path fill="#e9f1f2" d="M34,57h-.44a4.775,4.775,0,0,0-4.33-2.77,5.034,5.034,0,0,0-1.08.12L21,56V54l7.15-1.65a5.034,5.034,0,0,1,1.08-.12A4.769,4.769,0,0,1,34,57Z"/><circle cx="48" cy="18" r="2.5" fill="#ade8f4"/><circle cx="42" cy="18" r="2.5" fill="#ade8f4"/><path fill="#da9367" d="M54,16V15H53v5h1a2.978,2.978,0,0,0,2.3-1.092A2.994,2.994,0,0,1,54,16Z"/><path fill="#da9367" d="M36,16V15h1v5H36a2.978,2.978,0,0,1-2.3-1.092A2.994,2.994,0,0,0,36,16Z"/><path fill="#48cae4" d="M49.768,19.768a2.5,2.5,0,0,1-3.536-3.536Z"/><path fill="#48cae4" d="M43.768,19.768a2.5,2.5,0,0,1-3.536-3.536Z"/><path fill="#00b4d8" d="M16,47H10a2.971,2.971,0,0,1-2.226-1H5v2H15A1,1,0,0,0,16,47Z"/><path fill="#00b4d8" d="M5,49H15a0,0,0,0,1,0,0v4a0,0,0,0,1,0,0H5a2,2,0,0,1-2-2v0a2,2,0,0,1,2-2Z" transform="rotate(-180 9 51)"/><path fill="#0096c7" d="M15,51a2.015,2.015,0,0,1-2,2H3V49H5.18A2.968,2.968,0,0,0,8,51Z"/><path fill="#48cae4" d="M3,50H13a1,1,0,0,1,1,1v0a1,1,0,0,1-1,1H3a0,0,0,0,1,0,0V50A0,0,0,0,1,3,50Z"/><path fill="#00b4d8" d="M14,51H8a2.971,2.971,0,0,1-2.226-1H3v2H13A1,1,0,0,0,14,51Z"/><path fill="#ff7373" d="M7,53H17a0,0,0,0,1,0,0v4a0,0,0,0,1,0,0H7a2,2,0,0,1-2-2v0A2,2,0,0,1,7,53Z" transform="rotate(180 11 55)"/><path fill="#ef5350" d="M17,55a2.015,2.015,0,0,1-2,2H5V53H7.18A2.968,2.968,0,0,0,10,55Z"/><path fill="#48cae4" d="M5,54H15a1,1,0,0,1,1,1v0a1,1,0,0,1-1,1H5a0,0,0,0,1,0,0V54A0,0,0,0,1,5,54Z"/><path fill="#00b4d8" d="M16,55H10a2.971,2.971,0,0,1-2.226-1H5v2H15A1,1,0,0,0,16,55Z"/><g data-name="Outline copy"><path fill="#464a51" d="M45,24.911a6.4,6.4,0,0,0,3.555-1.079,1,1,0,1,0-1.11-1.664,4.4,4.4,0,0,1-4.89,0,1,1,0,0,0-1.11,1.664A6.4,6.4,0,0,0,45,24.911Z"/><circle cx="45" cy="42" r="1" fill="#464a51"/><path fill="#464a51" d="M61,60H17a1,1,0,0,0,0,2H61a1,1,0,0,0,0-2Z"/><path fill="#464a51" d="M13,60H3a1,1,0,0,0,0,2H13a1,1,0,0,0,0-2Z"/><path fill="#464a51" d="M61,58a1,1,0,0,0,0-2H54.509l.24-.568A5.983,5.983,0,0,0,58.288,51.5l2.074-7.469a1,1,0,0,0-.873-1.263l-5.326-.485.418-2.087A1,1,0,0,0,52.62,39.8l-.636,3.178L51.2,46.915l-5.275-.528A1,1,0,1,0,44,46a.939.939,0,0,0,.043.212,11.221,11.221,0,0,0-3.008.17l.879-1.976a1,1,0,1,0-1.828-.812l-1.655,3.724A5.4,5.4,0,0,0,35.9,52a5.978,5.978,0,0,0-.723.482A5.808,5.808,0,0,0,34,53.762a5.808,5.808,0,0,0-.612-.757,8.976,8.976,0,0,0,2.033-4.743l.573-5.152c0-.018-.007-.035-.006-.053A.578.578,0,0,0,36,43V41a1,1,0,0,0-2,0v1H30V38.083a4.986,4.986,0,0,1,4.178-4.933l3.225-.537h0l5.923,4.391-2.192,1.643-3.846-4.313a1,1,0,0,0-1.494,1.33l4.458,5A1,1,0,0,0,41.6,40.8L45,38.25l3.4,2.55a1,1,0,0,0,1.347-.135l6.583-7.384A4.984,4.984,0,0,1,59.99,37.9l-.514,1.851a1,1,0,1,0,1.927.535l.558-2.011a.97.97,0,0,0,.029-.4,6.993,6.993,0,0,0-5.839-6.692l-3.644-.608A2.99,2.99,0,0,1,50,27.611a.913.913,0,0,0-.024-.118A9.009,9.009,0,0,0,53.941,21H54a4,4,0,0,0,4-4,3,3,0,0,0-3-3H54a1,1,0,0,0-1-1A16.165,16.165,0,0,1,42.939,9.471l-.314-.252a1,1,0,0,0-1.595.539L41,9.877A4.116,4.116,0,0,1,37,13a1,1,0,0,0-1,1H35a10,10,0,0,1,19.624-2.728,1,1,0,0,0,1.924-.544A12,12,0,0,0,33,14a4.416,4.416,0,0,0,.068.724A2.981,2.981,0,0,0,32,17a4,4,0,0,0,4,4h.059A9.006,9.006,0,0,0,40,27.478v.133a2.99,2.99,0,0,1-2.507,2.959l-3.644.608A6.978,6.978,0,0,0,28,38.083V43a1,1,0,0,0,1,1h4.883l-.449,4.041a6.96,6.96,0,0,1-1.679,3.77,5.741,5.741,0,0,0-3.826-.436l-.3.069,1.652-1.377A2,2,0,0,0,30,48.531V47a1,1,0,0,0-2,0v1.531l-4.692,3.91-2.533.584A1,1,0,0,0,20,54v2H17.816a2.95,2.95,0,0,0-2.036-3.884,2.941,2.941,0,0,0,0-2.232A2.993,2.993,0,0,0,15,44H5a1,1,0,0,0-1,1v3H3a1,1,0,0,0-1,1v4a1,1,0,0,0,1,1H15a1,1,0,0,1,0,2H3a1,1,0,0,0,0,2ZM48.865,38.648l-2.192-1.643L52.6,32.613l1.436.239ZM55,16a1,1,0,0,1,1,1,2,2,0,0,1-2,2V16ZM42.473,11.625A18.2,18.2,0,0,0,52,14.972v.493l-1.453.969A2.981,2.981,0,0,0,45.184,17h-.368a2.977,2.977,0,0,0-5.2-.8l-1.343-1.344A6.108,6.108,0,0,0,42.473,11.625ZM49,18a1,1,0,1,1-1-1A1,1,0,0,1,49,18Zm-6,0a1,1,0,1,1-1-1A1,1,0,0,1,43,18Zm-9-1a1,1,0,0,1,1-1h1v3A2,2,0,0,1,34,17Zm4,3V17.414l1.047,1.047A2.985,2.985,0,0,0,44.816,19h.368a2.99,2.99,0,0,0,5.758-.426L52,17.868V20a7,7,0,0,1-14,0Zm3.925,8.448a8.841,8.841,0,0,0,6.15,0,4.961,4.961,0,0,0,2.239,3.367L45,35.755l-5.314-3.94A4.961,4.961,0,0,0,41.925,28.448ZM6,46h9a1,1,0,0,1,0,2H6ZM4,52V50h9a1,1,0,0,1,0,2Zm44,4V54.9l2.961.789a5.933,5.933,0,0,0,1.425.2L52.337,56Zm-7.772-7.355a9.252,9.252,0,0,1,3.863-.431L51.9,49a1,1,0,0,0,1.08-.8l.789-3.94,4.346.4-1.754,6.314a4.016,4.016,0,0,1-4.884,2.794L45.241,52.1a17.122,17.122,0,0,0-4.476-.562l-.694-.16a5.752,5.752,0,0,0-2.125-.084A3.417,3.417,0,0,1,40.228,48.645Zm-3.8,5.4a3.75,3.75,0,0,1,3.2-.724L46,54.8V56H35.133A3.754,3.754,0,0,1,36.424,54.048ZM22,54.8l6.379-1.472A3.777,3.777,0,0,1,32.867,56H22Z"/><path fill="#464a51" d="M8,28a3,3,0,0,0,2,2.816V31a5,5,0,0,0,10,0v-.184a2.982,2.982,0,0,0,0-5.632v-.3a7,7,0,1,0-10,0v.3A3,3,0,0,0,8,28Zm7,6a3,3,0,0,1-3-3h6A3,3,0,0,1,15,34Zm4-5H11a1,1,0,0,1,0-2h8a1,1,0,0,1,0,2ZM15,15a4.994,4.994,0,0,1,3.332,8.719,1,1,0,0,0-.332.744V25H16V21.414l1.707-1.707a1,1,0,0,0-1.414-1.414L15,19.586l-1.293-1.293a1,1,0,0,0-1.414,1.414L14,21.414V25H12v-.537a1,1,0,0,0-.332-.744A4.994,4.994,0,0,1,15,15Z"/><circle cx="25" cy="20" r="1" fill="#464a51"/><circle cx="5" cy="20" r="1" fill="#464a51"/><circle cx="15" cy="10" r="1" fill="#464a51"/><path fill="#464a51" d="M10.5,12.206a1,1,0,1,0-1.366-.366A1,1,0,0,0,10.5,12.206Z"/><path fill="#464a51" d="M24.16,15.866a1,1,0,1,0-1.366-.366A1,1,0,0,0,24.16,15.866Z"/><path fill="#464a51" d="M5.84,24.134a1,1,0,1,0,1.366.366A1,1,0,0,0,5.84,24.134Z"/><path fill="#464a51" d="M5.84,15.866A1,1,0,1,0,5.474,14.5,1,1,0,0,0,5.84,15.866Z"/><path fill="#464a51" d="M23.16,25.866a1,1,0,1,0-.366-1.366A1,1,0,0,0,23.16,25.866Z"/><path fill="#464a51" d="M19.5,12.206a1,1,0,1,0-.366-1.366A1,1,0,0,0,19.5,12.206Z"/></g></svg>